<svg xmlns="http://www.w3.org/2000/svg" width="115" height="18" viewBox="0 0 115 18" fill="none"><path d="M8.09375 1.5625L6.0625 5.71875L1.46875 6.375C0.65625 6.5 0.34375 7.5 0.9375 8.09375L4.21875 11.3125L3.4375 15.8438C3.3125 16.6562 4.1875 17.2812 4.90625 16.9062L9 14.75L13.0625 16.9062C13.7812 17.2812 14.6562 16.6562 14.5312 15.8438L13.75 11.3125L17.0312 8.09375C17.625 7.5 17.3125 6.5 16.5 6.375L11.9375 5.71875L9.875 1.5625C9.53125 0.84375 8.46875 0.8125 8.09375 1.5625ZM32.3438 1.5625L30.3125 5.71875L25.7188 6.375C24.9062 6.5 24.5938 7.5 25.1875 8.09375L28.4688 11.3125L27.6875 15.8438C27.5625 16.6562 28.4375 17.2812 29.1562 16.9062L33.25 14.75L37.3125 16.9062C38.0312 17.2812 38.9062 16.6562 38.7812 15.8438L38 11.3125L41.2812 8.09375C41.875 7.5 41.5625 6.5 40.75 6.375L36.1875 5.71875L34.125 1.5625C33.7812 0.84375 32.7188 0.8125 32.3438 1.5625ZM56.5938 1.5625L54.5625 5.71875L49.9688 6.375C49.1562 6.5 48.8438 7.5 49.4375 8.09375L52.7188 11.3125L51.9375 15.8438C51.8125 16.6562 52.6875 17.2812 53.4062 16.9062L57.5 14.75L61.5625 16.9062C62.2812 17.2812 63.1562 16.6562 63.0312 15.8438L62.25 11.3125L65.5312 8.09375C66.125 7.5 65.8125 6.5 65 6.375L60.4375 5.71875L58.375 1.5625C58.0312 0.84375 56.9688 0.8125 56.5938 1.5625ZM80.8438 1.5625L78.8125 5.71875L74.2188 6.375C73.4062 6.5 73.0938 7.5 73.6875 8.09375L76.9688 11.3125L76.1875 15.8438C76.0625 16.6562 76.9375 17.2812 77.6562 16.9062L81.75 14.75L85.8125 16.9062C86.5312 17.2812 87.4062 16.6562 87.2812 15.8438L86.5 11.3125L89.7812 8.09375C90.375 7.5 90.0625 6.5 89.25 6.375L84.6875 5.71875L82.625 1.5625C82.2812 0.84375 81.2188 0.8125 80.8438 1.5625ZM105.094 1.5625L103.062 5.71875L98.4688 6.375C97.6562 6.5 97.3438 7.5 97.9375 8.09375L101.219 11.3125L100.438 15.8438C100.312 16.6562 101.188 17.2812 101.906 16.9062L106 14.75L110.062 16.9062C110.781 17.2812 111.656 16.6562 111.531 15.8438L110.75 11.3125L114.031 8.09375C114.625 7.5 114.312 6.5 113.5 6.375L108.938 5.71875L106.875 1.5625C106.531 0.84375 105.469 0.8125 105.094 1.5625Z" fill="#FDA043"></path></svg>